<svg width="134" height="33" viewBox="0 0 134 33" fill="none" xmlns="http://www.w3.org/2000/svg">
<path d="M56.1646 23.0283L54.3114 29.4848H53.0285L52.1019 25.9696L51.1753 29.4848H49.8923L48.1816 23.0283H50.1061L51.104 26.9739L52.1019 23.0283H53.2423L54.2402 26.9739L55.3093 23.0283H56.1646ZM61.5816 29.3413C61.154 29.4848 60.7263 29.5565 60.2987 29.5565C59.6572 29.5565 59.3008 29.3413 59.1582 28.9826C58.8731 29.3413 58.4455 29.5565 57.8753 29.5565C56.8061 29.5565 56.3072 29.1261 56.3072 28.1935C56.3072 27.4761 56.8061 26.9739 57.7327 26.687C58.588 26.4 59.0157 26.1131 59.0157 25.7544C59.0157 25.2522 58.7306 25.037 58.2316 25.037C57.6614 25.037 57.3763 25.2522 57.3763 25.7544C57.3763 25.8978 57.4476 26.1131 57.5189 26.3283L56.6636 26.1848C56.6636 26.0413 56.5923 25.8978 56.5923 25.7544C56.5923 24.9652 57.305 24.6065 58.7306 24.6065C60.0848 24.6065 60.7976 24.9652 60.7976 25.6826V28.5522C60.7976 28.8392 60.8689 28.9826 61.0827 28.9826C61.154 28.9826 61.2253 28.9826 61.3678 28.9109L61.5816 29.3413ZM59.087 26.6152C58.9444 26.7587 58.8731 26.8305 58.7306 26.9022C58.3742 27.1174 58.1604 27.4761 58.1604 27.9783C58.1604 28.6239 58.3029 28.9109 58.5167 28.9109C58.8731 28.9109 59.087 28.6239 59.087 27.9783V26.6152ZM66.0721 24.75L63.7912 30.1305C63.5061 30.8478 63.0784 31.2065 62.5082 31.2065C62.0093 31.2065 61.6529 30.9913 61.4391 30.5609L62.0806 30.1305C62.1519 30.4892 62.2944 30.7044 62.5082 30.7044C62.7933 30.7044 63.0072 30.4892 63.1497 30.0587L63.2923 29.7L61.2965 24.6783H63.2923L64.2901 27.4761L65.4306 24.6783H66.0721V24.75ZM72.1306 24.75V25.2522H71.3465V28.6239C71.3465 28.8392 71.4178 28.9109 71.5604 28.9109C71.6316 28.9109 71.7029 28.8392 71.7742 28.6957L72.2731 28.7674C72.1306 29.2696 71.7029 29.4848 70.9189 29.4848C69.9923 29.4848 69.5646 29.1261 69.5646 28.4087V25.2522H68.9944V24.75H69.5646V23.8892C70.2061 23.7457 70.7763 23.4587 71.3465 23.1718V24.75H72.1306ZM74.9816 24.6065C76.621 24.6065 77.405 25.4674 77.405 27.1174C77.405 28.7674 76.621 29.6283 74.9816 29.6283C73.3423 29.6283 72.487 28.7674 72.487 27.1174C72.487 25.3957 73.3423 24.6065 74.9816 24.6065ZM74.9816 25.037C74.554 25.037 74.4114 25.7544 74.4114 27.1174C74.4114 28.4805 74.6253 29.1978 74.9816 29.1978C75.4093 29.1978 75.5519 28.4805 75.5519 27.1174C75.5519 25.7544 75.338 25.037 74.9816 25.037ZM85.6731 24.8218L84.7465 24.9652C84.8178 24.8218 84.8178 24.6783 84.8178 24.5348C84.8178 23.8174 84.3189 23.387 83.3923 23.387C82.6795 23.387 82.2519 23.6739 82.2519 24.1761C82.2519 24.5348 82.6795 24.8935 83.5348 25.1805C85.1742 25.6826 85.9582 26.4718 85.9582 27.5478C85.9582 28.1935 85.7444 28.6239 85.2455 29.0544C84.8178 29.4131 84.1763 29.6283 83.4636 29.6283C81.8242 29.6283 80.9689 28.9826 80.9689 27.7631C80.9689 27.6913 80.9689 27.5478 80.9689 27.4044L81.8955 27.1892C81.8242 27.4761 81.7529 27.6913 81.7529 27.9065C81.7529 28.6957 82.2519 29.1261 83.1784 29.1261C83.9625 29.1261 84.3189 28.8392 84.3189 28.2652C84.3189 27.8348 83.8912 27.4761 82.9646 27.1174C81.6104 26.687 80.9689 25.8978 80.9689 24.8935C80.9689 24.3196 81.1827 23.8174 81.6104 23.4587C82.038 23.1 82.6082 22.9565 83.321 22.9565C84.8891 22.9565 85.6731 23.5305 85.6731 24.8218ZM91.4465 24.6065V29.4848H89.6646V28.6957C89.237 29.2696 88.738 29.5565 88.0965 29.5565C87.2412 29.5565 86.8136 29.1261 86.8136 28.337V24.75C87.3838 24.75 88.0253 24.6783 88.5955 24.6065V28.337C88.5955 28.6239 88.6667 28.8392 88.8806 28.8392C89.4508 28.8392 89.6646 28.2652 89.6646 27.1892V24.8218C90.2348 24.6783 90.805 24.6783 91.4465 24.6065ZM95.937 27.3326L96.721 27.5478V27.7631C96.721 28.9826 96.0082 29.5565 94.654 29.5565C93.0146 29.5565 92.2306 28.7674 92.2306 27.1892C92.2306 26.4 92.4444 25.7544 92.9433 25.2522C93.4423 24.75 94.0838 24.5348 94.8678 24.5348C96.0082 24.5348 96.5784 25.037 96.5784 26.0413L95.7231 26.4V25.9696C95.7231 25.2522 95.5093 24.9652 95.0104 24.9652C94.3689 24.9652 94.0838 25.6109 94.0838 26.9739C94.0838 27.7631 94.155 28.337 94.2976 28.6957C94.4402 28.9826 94.654 29.1261 95.0104 29.1261C95.6519 29.1261 96.0082 28.6957 96.0082 27.9065C96.0082 27.8348 96.0082 27.6196 95.937 27.3326ZM100.855 27.3326L101.639 27.5478V27.7631C101.639 28.9826 100.926 29.5565 99.5721 29.5565C97.9327 29.5565 97.1487 28.7674 97.1487 27.1892C97.1487 26.4 97.3625 25.7544 97.8614 25.2522C98.3604 24.75 99.0019 24.5348 99.7859 24.5348C100.926 24.5348 101.497 25.037 101.497 26.0413L100.641 26.4V25.9696C100.641 25.2522 100.427 24.9652 99.9284 24.9652C99.287 24.9652 99.0019 25.6109 99.0019 26.9739C99.0019 27.7631 99.0731 28.337 99.2157 28.6957C99.3582 28.9826 99.5721 29.1261 99.9284 29.1261C100.57 29.1261 100.926 28.6957 100.926 27.9065C100.926 27.8348 100.926 27.6196 100.855 27.3326ZM105.773 27.7631L106.486 27.9783C106.415 29.0544 105.702 29.6283 104.49 29.6283C102.851 29.6283 101.995 28.8392 101.995 27.2609C101.995 26.4718 102.209 25.8978 102.637 25.3957C103.065 24.8935 103.635 24.6783 104.348 24.6783C105.773 24.6783 106.486 25.5392 106.486 27.3326H103.849C103.849 28.5522 104.205 29.1978 104.847 29.1978C105.488 29.1978 105.773 28.8392 105.773 28.1218C105.773 27.9783 105.773 27.8348 105.773 27.7631ZM103.92 26.687H104.989C104.989 25.6109 104.847 25.037 104.49 25.037C104.205 25.037 103.991 25.4674 103.991 26.2565L103.92 26.687ZM111.119 25.9696L110.264 26.1131C110.264 25.3957 109.907 25.037 109.194 25.037C108.767 25.037 108.553 25.1805 108.553 25.5392C108.553 25.7544 108.909 26.0413 109.622 26.3283C110.762 26.7587 111.261 27.3326 111.261 27.9783C111.261 29.0544 110.549 29.5565 109.123 29.5565C107.626 29.5565 106.842 29.0544 106.842 27.9783L107.769 27.7631C107.769 27.8348 107.769 27.9783 107.769 28.05C107.769 28.337 107.911 28.5522 108.125 28.7674C108.339 28.9826 108.624 29.0544 108.981 29.0544C109.408 29.0544 109.622 28.9109 109.622 28.5522C109.622 28.337 109.266 28.05 108.553 27.7631C107.484 27.3326 106.985 26.7587 106.985 26.1131C106.985 25.6826 107.199 25.3239 107.555 25.037C107.983 24.75 108.482 24.6065 109.123 24.6065C110.406 24.6065 111.048 25.037 111.119 25.9696ZM115.966 25.9696L115.11 26.1131C115.11 25.3957 114.754 25.037 114.041 25.037C113.614 25.037 113.4 25.1805 113.4 25.5392C113.4 25.7544 113.756 26.0413 114.469 26.3283C115.609 26.7587 116.108 27.3326 116.108 27.9783C116.108 29.0544 115.395 29.5565 113.97 29.5565C112.473 29.5565 111.689 29.0544 111.689 27.9783L112.616 27.7631C112.616 27.8348 112.616 27.9783 112.616 28.05C112.616 28.337 112.758 28.5522 112.972 28.7674C113.186 28.9826 113.471 29.0544 113.827 29.0544C114.255 29.0544 114.469 28.9109 114.469 28.5522C114.469 28.337 114.112 28.05 113.4 27.7631C112.331 27.3326 111.832 26.7587 111.832 26.1131C111.832 25.6826 112.045 25.3239 112.402 25.037C112.83 24.75 113.328 24.6065 113.97 24.6065C115.182 24.6065 115.823 25.037 115.966 25.9696Z" fill="white"/>
<path d="M42.8367 7.60433L39.8431 16.3565C39.7006 16.7869 39.6293 17.1456 39.6293 17.4326C39.6293 17.9348 39.9144 18.2935 40.4133 18.4369V18.7956H35.2814V18.4369C35.7804 18.2935 35.9942 17.9348 35.9942 17.4326C35.9942 17.1456 35.9229 16.7869 35.7804 16.3565L32.2165 5.38042C31.9314 4.51955 31.7176 3.94564 31.5038 3.73042C31.2899 3.44347 31.0048 3.22825 30.6484 3.15651V2.72607H35.8516V3.15651C35.3527 3.37173 35.0676 3.65868 35.0676 4.08912C35.0676 4.30433 35.1389 4.66303 35.2814 5.09347L37.8474 12.6978L40.4133 5.1652C40.6272 4.66303 40.6984 4.30433 40.6984 4.08912C40.6984 3.58694 40.4133 3.29999 39.8431 3.15651V2.72607H45.9729V3.15651C45.474 3.37173 45.1889 3.65868 45.1889 4.16086C45.1889 4.37607 45.2601 4.66303 45.4027 5.09347L47.8974 12.6978L50.3921 5.02173C50.5346 4.66303 50.6059 4.37607 50.6059 4.08912C50.6059 3.80216 50.5346 3.58694 50.4633 3.44347C50.3208 3.29999 50.1069 3.15651 49.8218 3.08477V2.72607H55.1676V3.15651C54.7399 3.29999 54.4548 3.5152 54.3123 3.80216C54.0984 4.08912 53.8846 4.59129 53.5995 5.45216L49.8931 16.3565C49.7506 16.7152 49.6793 17.0739 49.6793 17.3609C49.6793 17.9348 49.9644 18.2217 50.5346 18.3652V18.7239H45.1889V18.3652C45.6878 18.2217 45.9729 17.863 45.9729 17.2891C45.9729 17.1456 45.9016 16.8587 45.6878 16.2848L42.8367 7.60433Z" fill="white"/>
<path d="M60.513 11.9087V15.8543H69.2087C69.4938 15.8543 69.6364 15.7826 69.7789 15.6391C69.9215 15.4956 69.9927 15.2804 70.1353 14.9217H70.4917V19.6565H70.1353C70.064 19.2978 69.9215 19.0826 69.8502 18.9391C69.7076 18.7956 69.4938 18.7239 69.28 18.7239H56.4502V18.2935C56.7353 18.2217 56.9491 18.0782 57.0204 17.9348C57.1629 17.7913 57.1629 17.5761 57.1629 17.2174V4.16085C57.1629 3.87389 57.0917 3.65867 57.0204 3.5152C56.8778 3.37172 56.7353 3.22824 56.3789 3.1565V2.72607H68.781C69.0661 2.72607 69.2087 2.65433 69.3513 2.51085C69.4938 2.36737 69.5651 2.15215 69.7076 1.79346H70.064V6.52824H69.7076C69.6364 6.16954 69.4938 5.95433 69.3513 5.81085C69.2087 5.66737 68.9949 5.59563 68.781 5.59563H60.513V9.11085H65.6449C65.93 9.11085 66.0725 9.03911 66.2151 8.89563C66.3576 8.75215 66.4289 8.53694 66.5715 8.17824H66.9278V12.7695H66.5715C66.5002 12.4108 66.3576 12.1956 66.2151 12.0522C66.0725 11.9087 65.8587 11.8369 65.6449 11.8369H60.513V11.9087Z" fill="white"/>
<path d="M76.6926 15.8543H84.3905C84.6756 15.8543 84.8182 15.7826 84.9607 15.6391C85.1033 15.4956 85.1745 15.2804 85.3171 14.9217H85.6735V19.6565H85.3171C85.2458 19.2978 85.1033 19.0826 84.9607 18.9391C84.8182 18.7956 84.6043 18.7239 84.3905 18.7239H72.6299V18.2935C72.915 18.2217 73.1288 18.0782 73.2001 17.9348C73.3426 17.7913 73.3426 17.5761 73.3426 17.2174V4.16086C73.3426 3.8739 73.2714 3.65868 73.2001 3.5152C73.0575 3.37173 72.915 3.22825 72.5586 3.15651V2.72607H77.4054V3.15651C77.1203 3.22825 76.9065 3.37173 76.7639 3.5152C76.6214 3.65868 76.6214 3.8739 76.6214 4.16086V15.8543H76.6926Z" fill="white"/>
<path d="M94.5825 5.59563V17.2891C94.5825 17.5761 94.6537 17.7913 94.725 17.9348C94.8676 18.0782 95.0101 18.2217 95.3665 18.2935V18.7239H90.5197V18.2935C90.8048 18.2217 91.0186 18.0782 91.0899 17.9348C91.2325 17.7913 91.2325 17.5761 91.2325 17.2174V5.59563H87.1697C86.8846 5.59563 86.742 5.66737 86.5995 5.81085C86.4569 5.95433 86.3857 6.16954 86.2431 6.52824H85.8867V1.79346H86.2431C86.3144 2.15215 86.4569 2.36737 86.5282 2.51085C86.6708 2.65433 86.8846 2.72607 87.0984 2.72607H98.5027C98.7878 2.72607 98.9303 2.65433 99.0729 2.51085C99.2154 2.36737 99.2867 2.15215 99.4293 1.79346H99.7857V6.52824H99.4293C99.358 6.16954 99.2154 5.95433 99.0729 5.81085C98.9303 5.66737 98.7165 5.59563 98.5027 5.59563H94.5825Z" fill="white"/>
<path d="M105.561 11.9087V15.8543H114.257C114.542 15.8543 114.684 15.7826 114.827 15.6391C114.969 15.4956 115.041 15.2804 115.183 14.9217H115.54V19.6565H115.183C115.112 19.2978 114.969 19.0826 114.898 18.9391C114.755 18.7956 114.542 18.7239 114.328 18.7239H101.569V18.2935C101.854 18.2217 102.068 18.0782 102.14 17.9348C102.282 17.7913 102.282 17.5761 102.282 17.2174V4.16085C102.282 3.87389 102.211 3.65867 102.14 3.5152C101.997 3.37172 101.854 3.22824 101.498 3.1565V2.72607H113.9C114.185 2.72607 114.328 2.65433 114.47 2.51085C114.613 2.36737 114.684 2.15215 114.827 1.79346H115.183V6.52824H114.755C114.684 6.16954 114.542 5.95433 114.399 5.81085C114.257 5.66737 114.043 5.59563 113.829 5.59563H105.49V9.11085H110.621C110.907 9.11085 111.049 9.03911 111.192 8.89563C111.334 8.75215 111.405 8.53694 111.548 8.17824H111.904V12.7695H111.548C111.477 12.4108 111.334 12.1956 111.192 12.0522C111.049 11.9087 110.835 11.8369 110.621 11.8369H105.561V11.9087Z" fill="white"/>
<path d="M131.006 12.985L133.073 16.572L132.788 16.7872C132.574 16.6437 132.432 16.572 132.289 16.572C132.147 16.572 131.862 16.7155 131.291 17.0742C130.151 17.8633 129.153 18.3655 128.298 18.6524C127.443 18.9394 126.445 19.0829 125.304 19.0829C123.095 19.0829 121.241 18.4372 119.816 17.2176C119.032 16.5002 118.39 15.5676 117.891 14.4916C117.393 13.3437 117.107 12.0524 117.107 10.6894C117.107 8.82416 117.606 7.10242 118.533 5.66764C119.958 3.44372 122.239 2.2959 125.233 2.2959C126.373 2.2959 127.371 2.43938 128.227 2.72633C129.082 3.01329 130.08 3.5872 131.22 4.30459C131.719 4.66329 132.076 4.80677 132.218 4.80677C132.361 4.80677 132.503 4.73503 132.717 4.59155L133.002 4.87851L130.935 8.39372L130.65 8.17851C130.65 8.03503 130.65 7.96329 130.65 7.96329C130.65 7.89155 130.65 7.81981 130.65 7.74807C130.65 7.31764 130.08 6.74372 129.011 6.16981C127.941 5.5959 126.944 5.30894 125.874 5.30894C124.378 5.30894 123.166 5.73938 122.168 6.67199C121.099 7.67633 120.529 9.03938 120.529 10.6176C120.529 12.2676 121.099 13.5589 122.168 14.5633C123.166 15.4959 124.378 15.9263 125.874 15.9263C127.015 15.9263 128.227 15.5676 129.367 14.922C130.294 14.4198 130.721 13.9176 130.721 13.4872C130.721 13.4872 130.721 13.3437 130.721 13.0568L131.006 12.985Z" fill="white"/>
<path fill-rule="evenodd" clip-rule="evenodd" d="M2.06641 3.08472H21.3111V10.8325H11.6175H10.1919V12.2673V21.5217H2.06641V3.08472Z" fill="white"/>
<path fill-rule="evenodd" clip-rule="evenodd" d="M26.9426 12.0522H11.4043V26.974H18.9596V19.9436V18.5805H20.3851H26.9426V12.0522Z" fill="white"/>
<path fill-rule="evenodd" clip-rule="evenodd" d="M20.1699 19.7285H30.2199V29.4133H20.1699V19.7285Z" fill="white"/>
</svg>
